<?xml version="1.0" standalone="no"?>
<!DOCTYPE svg PUBLIC "-//W3C//DTD SVG 20010904//EN"
 "http://www.w3.org/TR/2001/REC-SVG-20010904/DTD/svg10.dtd">
<svg version="1.0" xmlns="http://www.w3.org/2000/svg"
 width="512.000000pt" height="512.000000pt" viewBox="0 0 512.000000 512.000000"
 preserveAspectRatio="xMidYMid meet">
<metadata>
Created by potrace 1.14, written by Peter Selinger 2001-2017
</metadata>
<g transform="translate(0.000000,512.000000) scale(0.100000,-0.100000)"
fill="#000000" stroke="none">
<path d="M1385 4960 c-84 -22 -213 -124 -230 -182 -4 -13 -13 -30 -19 -38 -34
-41 -36 -115 -36 -1094 0 -863 -2 -974 -16 -994 -15 -22 -16 -22 -333 -22
-196 0 -330 -4 -348 -10 -17 -6 -35 -22 -42 -36 -17 -39 -15 -2058 3 -2139 18
-83 51 -141 116 -205 72 -70 77 -74 141 -102 l54 -23 1820 0 c1794 0 1821 0
1865 20 119 53 186 122 237 245 l23 55 0 2107 0 2106 -22 59 c-22 57 -43 94
-83 144 -31 38 -134 101 -179 110 -53 11 -2912 9 -2951 -1z m2946 -177 c63
-43 95 -89 113 -160 14 -54 16 -279 16 -2081 0 -2177 2 -2089 -50 -2160 -26
-35 -60 -61 -117 -91 l-42 -21 -1488 2 -1488 3 -3 2185 -2 2185 32 49 c39 58
112 113 159 119 19 2 662 4 1429 3 l1395 -1 46 -32z m-3247 -2329 c14 -6 16
-97 16 -937 0 -970 -2 -1028 -43 -1097 -28 -49 -83 -97 -143 -126 -133 -63
-302 1 -375 143 l-24 48 -3 974 c-1 536 0 981 2 988 4 10 63 13 280 13 151 0
281 -3 290 -6z"/>
<path d="M1971 4556 c-8 -10 -29 -16 -52 -16 -27 0 -45 -6 -57 -20 -9 -11 -34
-23 -54 -26 -20 -4 -39 -13 -42 -20 -3 -8 -10 -14 -17 -14 -6 0 -26 -16 -45
-35 -18 -19 -38 -35 -44 -35 -5 0 -10 -9 -10 -20 0 -11 -7 -20 -15 -20 -8 0
-15 -4 -15 -9 0 -4 -11 -20 -25 -35 -14 -15 -25 -38 -25 -51 0 -13 -6 -28 -14
-32 -23 -14 -48 -73 -44 -109 2 -25 -3 -38 -18 -48 -16 -12 -21 -27 -22 -70
-1 -53 0 -55 20 -47 13 5 26 21 30 38 6 22 19 35 48 48 38 17 39 19 24 36 -14
16 -14 18 5 28 26 14 31 14 31 -4 0 -8 7 -15 16 -15 10 0 14 7 12 23 -3 23 37
57 67 57 8 0 22 11 31 25 9 14 23 25 30 25 8 0 14 5 14 10 0 6 11 10 25 10 14
0 29 8 35 20 12 23 59 27 78 8 7 -7 12 -23 12 -36 0 -13 5 -33 11 -44 9 -17 6
-25 -23 -54 -18 -18 -37 -34 -42 -34 -4 0 -17 -11 -28 -25 -11 -14 -28 -25
-38 -25 -10 0 -20 -7 -24 -15 -3 -8 -12 -15 -21 -15 -8 0 -15 -7 -15 -15 0 -9
-8 -19 -17 -22 -41 -15 -42 -41 -4 -54 16 -6 37 -22 46 -36 10 -14 22 -22 31
-19 10 4 14 -2 14 -19 0 -18 5 -25 20 -25 11 0 20 -6 20 -14 0 -9 8 -12 25 -8
14 2 32 -1 40 -8 13 -11 15 -8 15 19 0 19 6 34 15 37 9 4 14 17 13 33 -2 32 8
51 29 51 11 0 14 6 9 26 -5 18 1 38 19 69 14 24 25 57 25 73 0 16 9 37 20 47
11 10 20 31 20 47 0 16 6 31 15 34 8 4 15 17 15 30 0 14 7 41 15 61 8 19 15
45 15 56 0 18 4 19 46 13 26 -3 62 -6 81 -6 l35 0 -4 -52 c-3 -44 1 -56 20
-75 13 -13 29 -23 37 -23 8 0 15 -9 15 -20 0 -12 7 -20 18 -20 9 0 28 -12 41
-26 14 -14 33 -24 44 -22 15 2 26 -6 36 -27 9 -16 17 -32 18 -34 2 -2 10 2 18
9 11 9 19 10 26 3 8 -8 7 -13 0 -17 -19 -12 -12 -34 11 -38 12 -2 33 -19 46
-38 13 -19 27 -36 33 -38 16 -6 10 50 -7 70 -16 16 -16 18 0 24 20 8 21 40 1
48 -10 3 -15 19 -15 42 0 27 -5 37 -20 41 -16 4 -20 14 -20 44 0 28 -4 39 -15
39 -9 0 -20 11 -25 25 -5 14 -21 30 -35 37 -25 11 -41 40 -36 69 2 20 -39 30
-64 17 -22 -13 -29 -4 -15 21 9 17 8 21 -4 21 -9 0 -20 9 -26 20 -12 22 -40
26 -57 9 -7 -7 -23 -9 -38 -5 -26 7 -26 8 -10 25 20 23 5 36 -30 27 -16 -4
-30 0 -42 12 -25 26 -242 32 -262 8z m624 -396 c3 -5 1 -10 -4 -10 -6 0 -11 5
-11 10 0 6 2 10 4 10 3 0 8 -4 11 -10z m-630 -110 c3 -5 1 -10 -4 -10 -6 0
-11 5 -11 10 0 6 2 10 4 10 3 0 8 -4 11 -10z"/>
<path d="M2892 4350 c-31 -29 -30 -83 3 -116 l25 -25 251 3 250 3 19 25 c27
35 25 81 -3 108 -23 21 -30 22 -273 22 -238 0 -251 -1 -272 -20z"/>
<path d="M2250 4127 c0 -9 -9 -22 -20 -29 -13 -9 -18 -19 -14 -35 4 -13 -3
-38 -16 -62 -17 -29 -21 -49 -17 -75 6 -35 -5 -57 -18 -36 -13 22 -25 8 -25
-29 0 -23 -8 -48 -20 -64 -11 -14 -20 -36 -20 -50 0 -14 -6 -27 -14 -30 -8 -3
-14 -18 -14 -34 1 -16 -9 -50 -21 -77 -11 -27 -21 -55 -21 -62 0 -8 -4 -14 -8
-14 -5 0 -19 -9 -32 -20 -13 -11 -37 -20 -55 -20 -17 0 -36 -5 -42 -11 -8 -8
-13 -7 -19 2 -4 7 -3 14 4 17 18 6 14 27 -7 47 -20 17 -20 17 0 54 l19 36 -25
3 c-14 2 -31 12 -38 23 -6 10 -20 19 -30 19 -10 0 -20 7 -23 15 -4 8 -12 15
-20 15 -8 0 -14 9 -14 20 0 13 -7 20 -19 20 -30 0 -51 11 -51 26 0 8 -7 14
-15 14 -8 0 -19 9 -25 20 -6 11 -15 20 -20 20 -13 0 -60 45 -60 57 0 11 -32
23 -62 23 -22 0 -25 -46 -4 -69 18 -21 36 -88 29 -108 -4 -9 1 -19 10 -25 10
-5 17 -21 17 -35 0 -16 13 -37 35 -59 19 -18 35 -37 35 -43 0 -6 11 -18 25
-27 14 -9 25 -24 25 -34 0 -10 13 -23 29 -30 16 -6 32 -18 35 -26 3 -8 12 -14
20 -14 7 0 16 -7 20 -15 3 -9 18 -15 39 -15 19 0 40 -7 47 -15 7 -8 30 -20 51
-25 22 -6 39 -15 39 -20 0 -4 72 -9 160 -9 92 -1 160 2 160 8 0 15 62 47 105
54 22 4 44 13 50 20 5 8 22 17 38 21 33 8 35 19 5 33 -22 10 -22 11 -4 19 11
4 27 2 37 -4 29 -18 32 -15 24 24 -6 33 -4 36 13 32 30 -8 75 38 69 69 -3 17
1 27 12 31 32 12 61 63 61 106 0 13 7 29 15 36 17 14 20 60 4 60 -6 0 -8 7 -5
15 3 8 9 21 12 29 4 11 0 13 -15 9 -12 -3 -21 -12 -21 -19 0 -8 -7 -14 -15
-14 -9 0 -23 -16 -32 -35 -13 -28 -22 -35 -46 -35 -21 0 -41 -13 -81 -55 -35
-37 -63 -57 -85 -61 -21 -4 -36 -14 -38 -26 -7 -26 -91 -26 -99 0 -3 9 -10 25
-15 35 -7 13 -6 23 2 33 6 8 9 27 6 44 -6 28 -5 29 22 24 20 -4 30 -1 34 10 4
9 15 16 26 16 10 0 21 9 24 20 3 11 12 20 21 20 9 0 16 7 16 15 0 9 11 20 24
25 47 17 70 80 30 80 -8 0 -14 7 -14 15 0 8 -6 15 -12 15 -13 0 -97 53 -108
68 -3 4 -20 20 -38 36 -25 23 -32 26 -32 13z m-20 -303 c0 -15 -14 -17 -45 -4
-19 7 -19 8 5 18 28 11 40 7 40 -14z m-2 -75 c-2 -6 -8 -10 -13 -10 -5 0 -11
4 -13 10 -2 6 4 11 13 11 9 0 15 -5 13 -11z m114 -191 c-9 -9 -15 -9 -24 0 -9
9 -7 12 12 12 19 0 21 -3 12 -12z m-602 -63 c0 -8 -4 -15 -10 -15 -5 0 -10 7
-10 15 0 8 5 15 10 15 6 0 10 -7 10 -15z m670 -45 c0 -5 -4 -10 -9 -10 -6 0
-13 5 -16 10 -3 6 1 10 9 10 9 0 16 -4 16 -10z"/>
<path d="M2920 3884 c-43 -18 -50 -29 -50 -76 0 -28 6 -42 26 -57 26 -21 35
-21 643 -21 l617 0 22 30 c39 53 20 106 -47 129 -24 8 -205 11 -605 11 -486
-1 -576 -3 -606 -16z"/>
<path d="M1559 3065 c-35 -19 -62 -61 -54 -85 3 -11 20 -31 36 -45 l31 -25
1289 0 1290 0 29 22 c25 18 30 29 30 65 0 35 -5 46 -27 60 -26 17 -101 18
-1313 20 -1096 2 -1289 0 -1311 -12z"/>
<path d="M1534 2506 c-19 -19 -34 -42 -34 -52 0 -23 26 -55 62 -77 25 -16 124
-17 1297 -17 l1270 0 36 21 c63 37 66 93 9 138 l-27 21 -1289 0 -1290 0 -34
-34z"/>
<path d="M1577 1980 c-29 -4 -42 -12 -57 -38 -25 -41 -25 -50 5 -87 l25 -30
1247 -3 c687 -2 1277 0 1311 3 75 8 102 29 102 78 0 22 -8 41 -24 56 l-23 22
-1274 2 c-701 1 -1291 0 -1312 -3z"/>
<path d="M1535 1415 c-48 -49 -45 -77 15 -118 23 -16 115 -17 1315 -17 l1290
0 29 23 c22 18 28 31 28 61 0 30 -6 44 -28 62 l-29 23 -1292 1 -1292 0 -36
-35z"/>
<path d="M1526 867 c-32 -42 -32 -54 -2 -92 l24 -30 1310 0 c1274 0 1310 1
1331 19 30 27 28 85 -2 114 l-23 22 -1307 0 -1306 0 -25 -33z"/>
</g>
</svg>
